<svg xmlns="http://www.w3.org/2000/svg" width="60.294" height="63.918" viewBox="0 0 60.294 63.918">
  <path id="Icon_ionic-md-arrow-round-up" data-name="Icon ionic-md-arrow-round-up" d="M64.921,32.344,40.582,7.26a5.532,5.532,0,0,0-4.069-1.635h-.073A5.532,5.532,0,0,0,32.372,7.26L8.033,32.344a5.371,5.371,0,0,0,0,7.847,6.008,6.008,0,0,0,8.21,0L30.665,25.115v38.87a5.818,5.818,0,0,0,11.625,0V25.115L56.711,40.19a6.008,6.008,0,0,0,8.21,0A5.371,5.371,0,0,0,64.921,32.344Z" transform="translate(-6.33 -5.625)" fill="#ffc380"/>
</svg>
