<?xml version="1.0" encoding="UTF-8"?><svg id="Layer_2" xmlns="http://www.w3.org/2000/svg" viewBox="0 0 120.2 146.18"><defs><style>.cls-1{fill:#ffc380;stroke-width:0px;}</style></defs><g id="Layer_1-2"><path id="Icon_ionic-ios-hand" class="cls-1" d="m22.14,55.66c3.26,11.61,4.45,18.8,6.65,18.29,3.29-.76,1.12-8.62-2.86-30.63-4.19-23.22-4.78-32.61,5.16-34.29,11.72-1.98,11.36,9.72,13.58,28.72,1.26,10.82,1.06,26.16,4.37,25.81,2.18-.23,2.32-11.31,2.56-27.94C51.91,14.29,50.82.05,62.76,0c14.37-.06,8.47,13.42,7.18,36.54-.99,17.78-3.36,31.72-1.13,31.92,3.21.29,8.62-24.43,8.62-24.43,3.06-22.93,4.39-31.59,13.3-30.42,8.35,1.1,8.85,9.91,4.74,37.91-2.91,19.8-8.92,40.11-8.92,40.11-.04,2.07,2.39,3.22,3.97,1.88l5.53-4.69c9.01-7.84,16.64-11.18,22.85-5.42,4.18,4.07-2.38,10.67-9.25,18.36-6.63,7.42-24.16,31.72-39.1,40.49-4.22,2.57-9.07,3.93-14.01,3.93h-19.74c-15.91,0-27.06-13.08-27.06-32.17l-5.98-48.44c-.49-7.39-9.9-30.57,3.06-34.24,13.19-3.74,11.89,12.06,15.33,24.33Z"/></g></svg>