<svg xmlns="http://www.w3.org/2000/svg" width="68.918" height="73.118" viewBox="0 0 68.918 73.118">
  <g id="Group_4" data-name="Group 4" transform="translate(3 2.469)" style="isolation: isolate">
    <path id="Path_1" data-name="Path 1" d="M61.918,18.921V11H50.76c-.952,0-1.428,0-1.83.04a8.122,8.122,0,0,0-7.278,7.278c-.04.4-.04.877-.04,1.83,0,1.136,0,1.7.05,2.155a8.122,8.122,0,0,0,8.768,7.188c.452-.039,1.009-.15,2.123-.373l1.2-.241a19.277,19.277,0,0,0,2.97-.716A8.122,8.122,0,0,0,61.8,21.974,19.285,19.285,0,0,0,61.918,18.921ZM21.306,27.044V19.122H10.148c-.952,0-1.428,0-1.829.04A8.122,8.122,0,0,0,1.04,26.441c-.04.4-.04.877-.04,1.83,0,1.136,0,1.7.051,2.155a8.122,8.122,0,0,0,8.768,7.188c.452-.039,1.009-.15,2.123-.373l1.2-.241a19.281,19.281,0,0,0,2.97-.716A8.122,8.122,0,0,0,21.187,30.1,19.286,19.286,0,0,0,21.306,27.044Z" transform="translate(0 29)" fill="#ffc380" fill-rule="evenodd"/>
    <path id="Path_2" data-name="Path 2" d="M21.306,48.122V27.816m0,20.306v7.921m0-7.921H10.148M61.918,40V19.694m0,20.306v7.921m0-7.921H50.76M61.918,19.694,21.306,27.816m40.612-8.122V19.2M21.306,27.816V20.828m0,0c0-6.375,0-9.563,1.841-11.808S28.114,6.149,34.365,4.9M21.306,20.828h0c0-6.375,0-9.563,1.841-11.808h0C24.988,6.774,28.114,6.149,34.365,4.9h0M21.306,20.828V56.043M34.365,4.9l8.122-1.624m0,0c8.99-1.8,13.485-2.7,16.458-.26s2.973,7.021,2.973,16.189M42.487,3.274h0c8.99-1.8,13.485-2.7,16.458-.26s2.973,7.021,2.973,16.189h0m0,28.718a19.285,19.285,0,0,1-.119,3.052,8.122,8.122,0,0,1-5.073,6.188,19.276,19.276,0,0,1-2.97.716m8.162-9.956h0a19.277,19.277,0,0,1-.119,3.052,8.122,8.122,0,0,1-5.073,6.188,19.276,19.276,0,0,1-2.97.716h0m0,0-1.2.241m0,0c-1.114.223-1.671.334-2.123.373A8.122,8.122,0,0,1,41.662,51.3c-.05-.451-.05-1.019-.05-2.155m10.942,8.97h0c-1.114.223-1.671.334-2.123.373A8.122,8.122,0,0,1,41.662,51.3c-.05-.451-.05-1.019-.05-2.155h0m0,0c0-.952,0-1.428.04-1.83a8.122,8.122,0,0,1,7.278-7.278c.4-.04.877-.04,1.83-.04m-9.148,9.148h0c0-.952,0-1.428.04-1.829a8.122,8.122,0,0,1,7.279-7.279c.4-.04.877-.04,1.829-.04h0M21.306,56.043a19.286,19.286,0,0,1-.119,3.052,8.122,8.122,0,0,1-5.073,6.188,19.281,19.281,0,0,1-2.97.716m8.162-9.956h0a19.286,19.286,0,0,1-.119,3.052,8.122,8.122,0,0,1-5.073,6.188,19.283,19.283,0,0,1-2.97.716h0m0,0-1.2.241m0,0c-1.114.223-1.671.334-2.123.373a8.122,8.122,0,0,1-8.768-7.188C1,58.974,1,58.406,1,57.27m10.942,8.97h0c-1.114.223-1.671.334-2.123.373a8.122,8.122,0,0,1-8.768-7.188C1,58.974,1,58.406,1,57.27H1m0,0c0-.952,0-1.428.04-1.83a8.122,8.122,0,0,1,7.279-7.278c.4-.04.877-.04,1.829-.04M1,57.27H1c0-.952,0-1.428.04-1.829a8.122,8.122,0,0,1,7.279-7.279c.4-.04.877-.04,1.829-.04h0" transform="translate(0 0)" fill="none" stroke="#ffc380" stroke-width="8"/>
  </g>
</svg>
