<?xml version="1.0" encoding="UTF-8"?><svg id="Layer_2" xmlns="http://www.w3.org/2000/svg" viewBox="0 0 101.7 107.79"><defs><style>.cls-1{fill:#ffc380;stroke-width:0px;}</style></defs><g id="Layer_1-2"><path id="Icon_ionic-md-arrow-round-up" class="cls-1" d="m98.8,45.06L57.76,2.76C55.95.94,53.47-.06,50.9,0h-.12c-2.57-.06-5.05.93-6.86,2.76L2.87,45.06c-3.65,3.42-3.85,9.15-.43,12.8.14.15.28.29.43.43,3.9,3.64,9.07,2.92,12.96-.73l22.26-21.62c1.06-1.11,2.94-.36,2.94,1.18l-1.73,60.41c.24,5.41,6.42,10.25,11.96,10.25s11.43-4.71,11.66-9.79l-2.28-60.87c0-1.54,1.88-2.29,2.94-1.18l22.12,21.43c3.9,3.65,9.24,4.56,13.13.89,2.24-2.11,3.32-5.28,2.7-8.29-.39-1.93-1.36-3.63-2.73-4.91Z"/></g></svg>